<mxfile host="65bd71144e">
    <diagram id="QMmVbCaRV5qnjLh4kayH" name="Page-1">
        <mxGraphModel dx="1433" dy="779" grid="1" gridSize="10" guides="1" tooltips="1" connect="1" arrows="1" fold="1" page="1" pageScale="1" pageWidth="150" pageHeight="75" math="0" shadow="0">
            <root>
                <mxCell id="0"/>
                <mxCell id="1" parent="0"/>
                <mxCell id="47" value="VectorPipeine.run()" style="swimlane;startSize=20;horizontal=1;childLayout=flowLayout;flowOrientation=north;resizable=0;interRankCellSpacing=50;containerType=tree;fontSize=12;" vertex="1" parent="1">
                    <mxGeometry x="90" y="33" width="270" height="460" as="geometry"/>
                </mxCell>
                <mxCell id="48" value="Convert (Docling)" style="whiteSpace=wrap;html=1;" vertex="1" parent="47">
                    <mxGeometry x="85" y="40" width="100" height="40" as="geometry"/>
                </mxCell>
                <mxCell id="60" style="edgeStyle=none;html=1;exitX=0.5;exitY=1;exitDx=0;exitDy=0;entryX=0.25;entryY=0;entryDx=0;entryDy=0;noEdgeStyle=1;orthogonal=1;" edge="1" parent="47" source="51" target="59">
                    <mxGeometry relative="1" as="geometry">
                        <Array as="points">
                            <mxPoint x="70" y="182"/>
                            <mxPoint x="112.5" y="208"/>
                        </Array>
                    </mxGeometry>
                </mxCell>
                <mxCell id="51" value="Chunk Text" style="whiteSpace=wrap;html=1;" vertex="1" parent="47">
                    <mxGeometry x="20" y="130" width="100" height="40" as="geometry"/>
                </mxCell>
                <mxCell id="52" value="" style="html=1;rounded=1;curved=0;sourcePerimeterSpacing=0;targetPerimeterSpacing=0;startSize=6;endSize=6;noEdgeStyle=1;orthogonal=1;" edge="1" parent="47" source="48" target="51">
                    <mxGeometry relative="1" as="geometry">
                        <Array as="points">
                            <mxPoint x="112.5" y="92"/>
                            <mxPoint x="70" y="118"/>
                        </Array>
                    </mxGeometry>
                </mxCell>
                <mxCell id="56" value="" style="html=1;rounded=1;curved=0;sourcePerimeterSpacing=0;targetPerimeterSpacing=0;startSize=6;endSize=6;noEdgeStyle=1;orthogonal=1;" edge="1" target="57" source="48" parent="47">
                    <mxGeometry relative="1" as="geometry">
                        <mxPoint x="1440" y="1060" as="sourcePoint"/>
                        <Array as="points">
                            <mxPoint x="157.5" y="92"/>
                            <mxPoint x="200" y="118"/>
                        </Array>
                    </mxGeometry>
                </mxCell>
                <mxCell id="57" value="Extract Artifacts" style="whiteSpace=wrap;html=1;" vertex="1" parent="47">
                    <mxGeometry x="150" y="130" width="100" height="40" as="geometry"/>
                </mxCell>
                <mxCell id="58" value="" style="html=1;rounded=1;curved=0;sourcePerimeterSpacing=0;targetPerimeterSpacing=0;startSize=6;endSize=6;noEdgeStyle=1;orthogonal=1;" edge="1" target="59" source="57" parent="47">
                    <mxGeometry relative="1" as="geometry">
                        <mxPoint x="1488" y="980" as="sourcePoint"/>
                        <Array as="points">
                            <mxPoint x="200" y="182"/>
                            <mxPoint x="157.5" y="208"/>
                        </Array>
                    </mxGeometry>
                </mxCell>
                <mxCell id="59" value="Embed Chunks and Artifacts" style="whiteSpace=wrap;html=1;" vertex="1" parent="47">
                    <mxGeometry x="85" y="220" width="100" height="40" as="geometry"/>
                </mxCell>
                <mxCell id="61" value="" style="html=1;rounded=1;curved=0;sourcePerimeterSpacing=0;targetPerimeterSpacing=0;startSize=6;endSize=6;noEdgeStyle=1;orthogonal=1;" edge="1" target="62" source="59" parent="47">
                    <mxGeometry relative="1" as="geometry">
                        <mxPoint x="1470" y="950" as="sourcePoint"/>
                        <Array as="points">
                            <mxPoint x="135" y="272"/>
                            <mxPoint x="135" y="298"/>
                        </Array>
                    </mxGeometry>
                </mxCell>
                <mxCell id="62" value="Store Embeddings" style="whiteSpace=wrap;html=1;" vertex="1" parent="47">
                    <mxGeometry x="85" y="310" width="100" height="40" as="geometry"/>
                </mxCell>
                <mxCell id="63" value="" style="html=1;rounded=1;curved=0;sourcePerimeterSpacing=0;targetPerimeterSpacing=0;startSize=6;endSize=6;noEdgeStyle=1;orthogonal=1;" edge="1" target="64" source="62" parent="47">
                    <mxGeometry relative="1" as="geometry">
                        <mxPoint x="1365" y="960" as="sourcePoint"/>
                        <Array as="points">
                            <mxPoint x="135" y="362"/>
                            <mxPoint x="135" y="388"/>
                        </Array>
                    </mxGeometry>
                </mxCell>
                <mxCell id="64" value="Register Documents" style="whiteSpace=wrap;html=1;" vertex="1" parent="47">
                    <mxGeometry x="85" y="400" width="100" height="40" as="geometry"/>
                </mxCell>
            </root>
        </mxGraphModel>
    </diagram>
</mxfile>